<svg width="1440" height="980" viewBox="0 0 1440 980" fill="none" xmlns="http://www.w3.org/2000/svg">
  <defs>
    <linearGradient id="bg" x1="720" y1="0" x2="720" y2="980" gradientUnits="userSpaceOnUse">
      <stop stop-color="#F8FAFC"/>
      <stop offset="1" stop-color="#F5F1EA"/>
    </linearGradient>
    <radialGradient id="blue" cx="0" cy="0" r="1" gradientUnits="userSpaceOnUse" gradientTransform="translate(132 46) rotate(44) scale(532 402)">
      <stop stop-color="#3B82F6" stop-opacity="0.18"/>
      <stop offset="1" stop-color="#3B82F6" stop-opacity="0"/>
    </radialGradient>
    <radialGradient id="amber" cx="0" cy="0" r="1" gradientUnits="userSpaceOnUse" gradientTransform="translate(1280 78) rotate(137) scale(450 330)">
      <stop stop-color="#FBBF24" stop-opacity="0.22"/>
      <stop offset="1" stop-color="#FBBF24" stop-opacity="0"/>
    </radialGradient>
    <filter id="softShadow" x="-20%" y="-20%" width="140%" height="150%" color-interpolation-filters="sRGB">
      <feDropShadow dx="0" dy="26" stdDeviation="26" flood-color="#111827" flood-opacity="0.10"/>
    </filter>
    <filter id="cardShadow" x="-20%" y="-20%" width="140%" height="160%" color-interpolation-filters="sRGB">
      <feDropShadow dx="0" dy="14" stdDeviation="18" flood-color="#111827" flood-opacity="0.08"/>
    </filter>
    <clipPath id="videoClip"><rect x="72" y="146" width="850" height="478" rx="24"/></clipPath>
  </defs>
  <rect width="1440" height="980" fill="url(#bg)"/>
  <rect width="1440" height="980" fill="url(#blue)"/>
  <rect width="1440" height="980" fill="url(#amber)"/>

  <rect x="0" y="0" width="1440" height="64" fill="white" fill-opacity="0.82"/>
  <line x1="0" y1="64" x2="1440" y2="64" stroke="white" stroke-opacity="0.8"/>
  <text x="72" y="42" font-family="Arial, sans-serif" font-size="26" font-weight="800" fill="#111827">POLUTEK</text>
  <rect x="450" y="16" width="510" height="36" rx="18" fill="white" stroke="#E5E7EB"/>
  <text x="478" y="39" font-family="Arial, sans-serif" font-size="13" fill="#9CA3AF">Szukaj materiałów...</text>
  <rect x="920" y="16" width="64" height="36" rx="18" fill="#111827"/>
  <text x="945" y="39" font-family="Arial, sans-serif" font-size="14" fill="white">⌕</text>
  <rect x="1134" y="15" width="88" height="38" rx="19" fill="white" fill-opacity="0.72" stroke="#E5E7EB"/>
  <text x="1154" y="39" font-family="Arial, sans-serif" font-size="11" font-weight="700" fill="#111827">PL</text>
  <text x="1188" y="39" font-family="Arial, sans-serif" font-size="11" font-weight="700" fill="#9CA3AF">EN</text>
  <rect x="1250" y="14" width="118" height="40" rx="20" fill="#111827"/>
  <text x="1288" y="39" font-family="Arial, sans-serif" font-size="12" font-weight="700" fill="white">Zaloguj</text>

  <g filter="url(#softShadow)">
    <rect x="48" y="112" width="910" height="785" rx="32" fill="white" fill-opacity="0.78" stroke="white" stroke-opacity="0.85"/>
    <rect x="72" y="146" width="850" height="478" rx="24" fill="#050505"/>
    <g clip-path="url(#videoClip)">
      <rect x="72" y="146" width="850" height="478" fill="#0F172A"/>
      <circle cx="455" cy="356" r="142" fill="#1D4ED8" fill-opacity="0.45"/>
      <circle cx="640" cy="270" r="206" fill="#F97316" fill-opacity="0.28"/>
      <path d="M421 323L421 447L526 385L421 323Z" fill="white" fill-opacity="0.92"/>
      <rect x="72" y="568" width="850" height="56" fill="black" fill-opacity="0.25"/>
    </g>
    <text x="80" y="678" font-family="Arial, sans-serif" font-size="32" font-weight="900" fill="#0F172A">Duży hero w szklanej karcie</text>
    <text x="80" y="710" font-family="Arial, sans-serif" font-size="16" font-weight="600" fill="#64748B">więcej oddechu, mocniejsza hierarchia, mniej płaskiego szarego tła</text>
    <circle cx="100" cy="766" r="22" fill="white" stroke="#E5E7EB"/>
    <text x="136" y="759" font-family="Arial, sans-serif" font-size="16" font-weight="800" fill="#111827">Polutek</text>
    <text x="136" y="781" font-family="Arial, sans-serif" font-size="12" font-weight="600" fill="#6B7280">124 tys. subskrypcji</text>
    <rect x="290" y="744" width="132" height="42" rx="21" fill="#111827"/>
    <text x="326" y="770" font-family="Arial, sans-serif" font-size="13" font-weight="800" fill="white">Subskrybuj</text>
    <rect x="600" y="744" width="122" height="42" rx="21" fill="#F3F4F6" stroke="#E5E7EB"/>
    <text x="639" y="770" font-family="Arial, sans-serif" font-size="13" font-weight="800" fill="#111827">👍 12k</text>
    <rect x="734" y="744" width="104" height="42" rx="21" fill="white" stroke="#E5E7EB"/>
    <text x="764" y="770" font-family="Arial, sans-serif" font-size="13" font-weight="800" fill="#111827">Udostępnij</text>
    <rect x="80" y="817" width="842" height="48" rx="20" fill="url(#bg)" stroke="#E5E7EB"/>
    <text x="104" y="847" font-family="Arial, sans-serif" font-size="14" font-weight="700" fill="#111827">Opis filmu jako miękka karta z gradientem i subtelnym cieniem wewnętrznym</text>
  </g>

  <g filter="url(#cardShadow)">
    <rect x="990" y="112" width="402" height="785" rx="32" fill="white" fill-opacity="0.72" stroke="white" stroke-opacity="0.85"/>
    <text x="1018" y="154" font-family="Arial, sans-serif" font-size="12" font-weight="900" letter-spacing="3" fill="#111827">MATERIAŁY</text>
    <line x1="1018" y1="178" x2="1364" y2="178" stroke="#E5E7EB"/>
    <rect x="1014" y="198" width="354" height="116" rx="18" fill="#EFF6FF" stroke="#BFDBFE"/>
    <rect x="1030" y="216" width="142" height="80" rx="12" fill="#111827"/>
    <rect x="1130" y="270" width="34" height="16" rx="5" fill="black" fill-opacity="0.7"/>
    <text x="1188" y="230" font-family="Arial, sans-serif" font-size="14" font-weight="900" fill="#111827">Aktywny materiał</text>
    <text x="1188" y="253" font-family="Arial, sans-serif" font-size="12" fill="#64748B">Polutek • 21 tys. wyśw.</text>
    <rect x="1188" y="270" width="92" height="22" rx="11" fill="#DBEAFE"/>
    <text x="1204" y="285" font-family="Arial, sans-serif" font-size="9" font-weight="900" fill="#1D4ED8">PUBLICZNY</text>

    <g opacity="0.98">
      <rect x="1014" y="326" width="354" height="116" rx="18" fill="white" fill-opacity="0.82"/>
      <rect x="1030" y="344" width="142" height="80" rx="12" fill="#334155"/>
      <text x="1188" y="358" font-family="Arial, sans-serif" font-size="14" font-weight="900" fill="#111827">Kolejny odcinek</text>
      <text x="1188" y="381" font-family="Arial, sans-serif" font-size="12" fill="#64748B">hover: karta unosi się</text>
      <rect x="1188" y="398" width="112" height="22" rx="11" fill="#E0F2FE"/>
      <text x="1204" y="413" font-family="Arial, sans-serif" font-size="9" font-weight="900" fill="#0369A1">ZALOGUJ SIĘ</text>
    </g>

    <text x="1018" y="487" font-family="Arial, sans-serif" font-size="12" font-weight="900" letter-spacing="3" fill="#111827">WESPRZYJ</text>
    <line x1="1018" y1="508" x2="1364" y2="508" stroke="#E5E7EB"/>
    <rect x="1014" y="530" width="354" height="96" rx="22" fill="#FEF3C7" stroke="#FDE68A"/>
    <text x="1042" y="568" font-family="Arial, sans-serif" font-size="18" font-weight="900" fill="#92400E">Sekcja donate</text>
    <text x="1042" y="592" font-family="Arial, sans-serif" font-size="13" font-weight="600" fill="#A16207">teraz wklejona w rytm sidebaru</text>

    <text x="1018" y="674" font-family="Arial, sans-serif" font-size="12" font-weight="900" letter-spacing="3" fill="#111827">STREFA PATRONA</text>
    <line x1="1018" y1="696" x2="1364" y2="696" stroke="#E5E7EB"/>
    <rect x="1014" y="718" width="354" height="116" rx="18" fill="white" fill-opacity="0.82"/>
    <rect x="1030" y="736" width="142" height="80" rx="12" fill="#78350F" fill-opacity="0.85"/>
    <text x="1188" y="750" font-family="Arial, sans-serif" font-size="14" font-weight="900" fill="#111827">Materiał premium</text>
    <text x="1188" y="773" font-family="Arial, sans-serif" font-size="12" fill="#64748B">czytelny status dostępu</text>
    <rect x="1188" y="790" width="96" height="22" rx="11" fill="#FEF3C7"/>
    <text x="1204" y="805" font-family="Arial, sans-serif" font-size="9" font-weight="900" fill="#B45309">PATRON</text>
  </g>
</svg>
